<svg xmlns="http://www.w3.org/2000/svg" width="1500" height="1555" viewBox="0 0 1500 1555" role="img"><title>DmaEA / 双层调用与持久运行引擎模块职责图</title><style>text{font-family:'Segoe UI','Microsoft YaHei',sans-serif;fill:#223148}.title{font-size:28px;font-weight:700}.text{font-size:19px}.small{font-size:16px;fill:#526177}</style><rect width="1500" height="1555" fill="#fff"/><text class="title" x="40" y="52">DmaEA / 双层调用与持久运行引擎</text><text class="small" x="40" y="85">CORE-DMAEA · 2026-10-05 · 初始职责投影；关联线无调用方向，详细运行流待逐功能审计</text><rect x="40" y="120" width="670" height="1385" rx="16" fill="#f3f6fb" stroke="#7353ae"/><text class="text" x="64" y="152">本模块职责 / 总图子节点</text><text class="text" x="890" y="152">相关模块 / 共同完成的职责</text>
<path d="M710,205 C810,205 790,205 870,205" fill="none" stroke="#b8c5d6" stroke-width="1.5"/>
<path d="M710,205 C810,205 790,330 870,330" fill="none" stroke="#b8c5d6" stroke-width="1.5"/>
<path d="M710,205 C810,205 790,455 870,455" fill="none" stroke="#b8c5d6" stroke-width="1.5"/>
<path d="M710,205 C810,205 790,580 870,580" fill="none" stroke="#b8c5d6" stroke-width="1.5"/>
<path d="M710,205 C810,205 790,705 870,705" fill="none" stroke="#b8c5d6" stroke-width="1.5"/>
<path d="M710,205 C810,205 790,830 870,830" fill="none" stroke="#b8c5d6" stroke-width="1.5"/>
<path d="M710,205 C810,205 790,955 870,955" fill="none" stroke="#b8c5d6" stroke-width="1.5"/>
<path d="M710,205 C810,205 790,1080 870,1080" fill="none" stroke="#b8c5d6" stroke-width="1.5"/>
<path d="M710,205 C810,205 790,1205 870,1205" fill="none" stroke="#b8c5d6" stroke-width="1.5"/>
<path d="M710,205 C810,205 790,1330 870,1330" fill="none" stroke="#b8c5d6" stroke-width="1.5"/>
<path d="M710,205 C810,205 790,1455 870,1455" fill="none" stroke="#b8c5d6" stroke-width="1.5"/>
<rect x="64" y="175" width="620" height="104" rx="10" fill="#fff" stroke="#7353ae"/><text class="text" x="84" y="205" style="font-weight:650;fill:#7353ae">1 受理 / 冻结 / 入队</text><text class="small" x="84" y="233">Coordinator · 201 interaction receipt</text><text class="small" x="84" y="255">模式、名册、模型、manifest、工作区</text>


<rect x="64" y="300" width="620" height="104" rx="10" fill="#fff" stroke="#7353ae"/><text class="text" x="84" y="330" style="font-weight:650;fill:#7353ae">2 持久运行引擎</text><text class="small" x="84" y="358">checkpoint / lease / replay / recovery</text><text class="small" x="84" y="380">queued / parallel / insert · run control</text>


<rect x="64" y="425" width="620" height="104" rx="10" fill="#fff" stroke="#7353ae"/><text class="text" x="84" y="455" style="font-weight:650;fill:#7353ae">3 operation / 计划</text><text class="small" x="84" y="483">名册选人、任务 DAG</text><text class="small" x="84" y="505">声明边与派发权限</text>

<rect x="64" y="550" width="620" height="104" rx="10" fill="#fff" stroke="#7353ae"/><text class="text" x="84" y="580" style="font-weight:650;fill:#7353ae">4 execution / 执行</text><text class="small" x="84" y="608">任务、spawn / lineage</text><text class="small" x="84" y="630">Models→工具回合→证据</text>


<rect x="64" y="675" width="620" height="104" rx="10" fill="#fff" stroke="#7353ae"/><text class="text" x="84" y="705" style="font-weight:650;fill:#7353ae">5 operation / 监督</text><text class="small" x="84" y="733">检查任务结果与证据</text><text class="small" x="84" y="755">pass / replan / escalate</text>


<rect x="64" y="800" width="620" height="104" rx="10" fill="#fff" stroke="#7353ae"/><text class="text" x="84" y="830" style="font-weight:650;fill:#7353ae">6 meeting / 最终对话输出</text><text class="small" x="84" y="858">回答预览 → 正式回答落地</text><text class="small" x="84" y="880">model.output.* / answer.* → SSE</text>


<rect x="64" y="925" width="620" height="104" rx="10" fill="#fff" stroke="#7353ae"/><text class="text" x="84" y="955" style="font-weight:650;fill:#7353ae">旁路 / 运营与候选演化</text><text class="small" x="84" y="983">上下文整理、记忆/智能体候选</text><text class="small" x="84" y="1005">审查、审计；完整评估/canary 未闭环</text>


<rect x="870" y="175" width="580" height="96" rx="10" fill="#fff" stroke="#b8c5d6"/>
<text class="text" x="892" y="205">AgentConfiguration</text>
<text class="small" x="892" y="253">CORE-AGENT-CONFIG</text>
<rect x="870" y="300" width="580" height="96" rx="10" fill="#fff" stroke="#b8c5d6"/>
<text class="text" x="892" y="330">Models · 模型与 Harness</text>
<text class="small" x="892" y="378">CORE-MODELS</text>
<rect x="870" y="425" width="580" height="96" rx="10" fill="#fff" stroke="#b8c5d6"/>
<text class="text" x="892" y="455">Tools · 工具治理与适配</text>
<text class="small" x="892" y="503">CORE-TOOLS</text>
<rect x="870" y="550" width="580" height="96" rx="10" fill="#fff" stroke="#b8c5d6"/>
<text class="text" x="892" y="580">Context · 本轮输入与补丁</text>
<text class="small" x="892" y="628">CORE-CONTEXT</text>
<rect x="870" y="675" width="580" height="96" rx="10" fill="#fff" stroke="#b8c5d6"/>
<text class="text" x="892" y="705">Lifecycle · 运行事实与恢复</text>
<text class="small" x="892" y="753">CORE-LIFECYCLE</text>
<rect x="870" y="800" width="580" height="96" rx="10" fill="#fff" stroke="#b8c5d6"/>
<text class="text" x="892" y="830">AgentGraph · 图与资源</text>
<text class="small" x="892" y="878">CORE-AGENT-GRAPH</text>
<rect x="870" y="925" width="580" height="96" rx="10" fill="#fff" stroke="#b8c5d6"/>
<text class="text" x="892" y="955">TinaChat · 会话组织通信</text>
<text class="small" x="892" y="1003">CORE-TINACHAT</text>
<rect x="870" y="1050" width="580" height="96" rx="10" fill="#fff" stroke="#b8c5d6"/>
<text class="text" x="892" y="1080">LoopGuard · 防空转与预算</text>
<text class="small" x="892" y="1128">CORE-LOOP-GUARD</text>
<rect x="870" y="1175" width="580" height="96" rx="10" fill="#fff" stroke="#b8c5d6"/>
<text class="text" x="892" y="1205">Governance · 授权与审批</text>
<text class="small" x="892" y="1253">CORE-GOVERNANCE</text>
<rect x="870" y="1300" width="580" height="96" rx="10" fill="#fff" stroke="#b8c5d6"/>
<text class="text" x="892" y="1330">Memory · 会话与长期记忆</text>
<text class="small" x="892" y="1378">CORE-MEMORY</text>
<rect x="870" y="1425" width="580" height="96" rx="10" fill="#fff" stroke="#b8c5d6"/>
<text class="text" x="892" y="1455">Gateway / SSE、附件、日志与取消</text>
<text class="small" x="892" y="1503">GW-STREAMING</text>
<text class="small" x="40" y="1530">完整源码入口、已核对的编译依赖、可编辑Mermaid与缺口在同目录ARCHITECTURE / STATUS / TODO。</text></svg>